<svg id="Capa_1" enable-background="new 0 0 512 512" height="512" viewBox="0 0 512 512" width="512" xmlns="http://www.w3.org/2000/svg"><path d="m487.277 50.918c-32.966-32.965-86.601-32.965-119.567 0-2.816 2.816-4.398 6.634-4.398 10.617 0 3.982 1.582 7.801 4.398 10.617l38.623 38.622-17.703 17.95c-35.608-30.715-81.948-49.312-132.552-49.312-50.612 0-96.959 18.604-132.569 49.327l-17.818-17.987 38.6-38.6c2.816-2.816 4.398-6.635 4.398-10.617s-1.582-7.801-4.398-10.617c-32.965-32.965-86.603-32.965-119.567 0-32.965 32.965-32.965 86.601 0 119.566 2.815 2.816 6.634 4.398 10.617 4.398s7.801-1.582 10.617-4.398l38.5-38.499 17.813 17.982c-30.761 35.62-49.389 81.996-49.389 132.642 0 45.791 15.232 88.089 40.886 122.105l-34.579 48.332c-4.825 6.744-3.27 16.123 3.474 20.948 2.648 1.894 5.7 2.804 8.724 2.804 4.68 0 9.292-2.182 12.224-6.279l30.524-42.664c36.654 35.829 86.76 57.951 141.944 57.951s105.289-22.122 141.944-57.951l30.524 42.664c2.932 4.097 7.542 6.279 12.224 6.279 3.023 0 6.077-.911 8.724-2.804 6.744-4.825 8.299-14.204 3.474-20.948l-34.579-48.332c25.655-34.016 40.886-76.314 40.886-122.105 0-50.654-18.633-97.036-49.402-132.658l17.695-17.942 38.476 38.476c2.815 2.816 6.634 4.398 10.617 4.398s7.802-1.582 10.617-4.398c32.962-32.965 32.962-86.602-.002-119.567zm-450.45 86.229c-11.489-20.732-8.445-47.42 9.13-64.996 10.628-10.627 24.589-15.941 38.55-15.941 9.126 0 18.251 2.27 26.446 6.812l-37.008 37.008c-.001.001-.003.003-.005.004-.002.002-.003.004-.005.006zm234.265 317.971v-16.358c0-8.292-6.722-15.015-15.015-15.015-8.292 0-15.015 6.722-15.015 15.015v16.358c-83.53-7.209-150.286-73.965-157.495-157.495h16.358c8.292 0 15.015-6.722 15.015-15.015s-6.722-15.015-15.015-15.015h-16.357c7.209-83.53 73.965-150.286 157.495-157.495v16.358c0 8.292 6.722 15.015 15.015 15.015 8.292 0 15.015-6.722 15.015-15.015v-16.358c83.53 7.209 150.286 73.965 157.495 157.495h-16.358c-8.292 0-15.015 6.722-15.015 15.015s6.722 15.015 15.015 15.015h16.358c-7.21 83.53-73.966 150.286-157.496 157.495zm204.081-317.971-74.126-74.126c20.73-11.49 47.419-8.445 64.996 9.13 17.575 17.576 20.619 44.264 9.13 64.996z"/><path d="m271.092 277.108v-87.59c0-8.292-6.722-15.015-15.015-15.015-8.292 0-15.015 6.722-15.015 15.015v93.09c0 3.551 1.259 6.988 3.552 9.698l55.053 65.063c2.971 3.51 7.205 5.317 11.47 5.317 3.425 0 6.871-1.167 9.691-3.553 6.33-5.356 7.119-14.83 1.763-21.16z"/></svg>